<?xml version="1.0" encoding="UTF-8" standalone="no"?>
<svg
   xmlns:dc="http://purl.org/dc/elements/1.1/"
   xmlns:cc="http://creativecommons.org/ns#"
   xmlns:rdf="http://www.w3.org/1999/02/22-rdf-syntax-ns#"
   xmlns:svg="http://www.w3.org/2000/svg"
   xmlns="http://www.w3.org/2000/svg"
   xmlns:sodipodi="http://sodipodi.sourceforge.net/DTD/sodipodi-0.dtd"
   xmlns:inkscape="http://www.inkscape.org/namespaces/inkscape"
   width="128"
   height="128"
   viewBox="0 0 33.866667 33.866667"
   version="1.1"
   id="svg4258"
   inkscape:version="1.0.1 (c497b03c, 2020-09-10)"
   sodipodi:docname="falcon.svg"
   inkscape:export-filename="/Users/alsrfo/bitmap.png"
   inkscape:export-xdpi="48.000004"
   inkscape:export-ydpi="48.000004">
  <defs
     id="defs4252">
    <inkscape:path-effect
       effect="mirror_symmetry"
       start_point="16.933333,4.13"
       end_point="16.933333,32.6"
       center_point="16.933333,18.560636"
       id="path-effect832"
       is_visible="true"
       lpeversion="1"
       mode="free"
       discard_orig_path="false"
       fuse_paths="false"
       oposite_fuse="false"
       split_items="false" />
  </defs>
  <sodipodi:namedview
     id="base"
     pagecolor="#ffffff"
     bordercolor="#666666"
     borderopacity="1.0"
     inkscape:pageopacity="0.0"
     inkscape:pageshadow="2"
     inkscape:zoom="3.7622001"
     inkscape:cx="135.92781"
     inkscape:cy="64.122519"
     inkscape:document-units="mm"
     inkscape:current-layer="layer1"
     inkscape:document-rotation="0"
     showgrid="false"
     units="px"
     inkscape:window-width="1252"
     inkscape:window-height="755"
     inkscape:window-x="0"
     inkscape:window-y="23"
     inkscape:window-maximized="0" />
  <metadata
     id="metadata4255">
    <rdf:RDF>
      <cc:Work
         rdf:about="">
        <dc:format>image/svg+xml</dc:format>
        <dc:type
           rdf:resource="http://purl.org/dc/dcmitype/StillImage" />
        <dc:title />
      </cc:Work>
    </rdf:RDF>
  </metadata>
  <g
     inkscape:label="Layer 1"
     inkscape:groupmode="layer"
     id="layer1">
    <path
       style="fill:#000000;stroke:none;stroke-width:0.26458300000000001px;stroke-linecap:butt;stroke-linejoin:miter;stroke-opacity:1"
       d="m 16.933333,7.2069175 -0.296368,0.4948999 c -1.44252,0.3241618 -1.679519,2.042946 -2.11155,2.9580516 -0.152326,0.32265 -0.61202,0.355722 -1.041882,0.352531 C 12.786319,11.033495 12.81596,9.5887294 11.580592,9.7868491 8.0999924,10.442757 6.1512796,22.230108 5.7105607,26.031707 c -0.010363,0.083 -0.00521,0.144275 0.044869,0.163553 0.061466,0.02366 0.1912422,-0.09735 0.1912422,-0.09735 0,0 -0.09995,0.229146 0.011984,0.275827 0.1499193,0.06243 0.3875342,-0.413802 0.4414201,-0.544518 1.272932,-3.087868 4.2269,-6.735629 5.34368,-7.034284 1.116558,-0.409405 2.988584,1.036854 2.988584,1.036854 l 0.797598,7.610433 0.614582,0.446726 0.788812,-0.413764 z m 0,0 0.296368,0.4948999 c 1.44252,0.3241618 1.679519,2.042946 2.11155,2.9580516 0.152326,0.32265 0.61202,0.355722 1.041882,0.352531 0.697214,0.0211 0.667573,-1.4236706 1.902941,-1.2255509 3.4806,0.6559079 5.429312,12.4432589 5.870031,16.2448579 0.01036,0.083 0.0052,0.144275 -0.04487,0.163553 -0.06147,0.02366 -0.191242,-0.09735 -0.191242,-0.09735 0,0 0.09995,0.229146 -0.01198,0.275827 -0.149919,0.06243 -0.387534,-0.413802 -0.44142,-0.544518 -1.272932,-3.087868 -4.2269,-6.735629 -5.34368,-7.034284 -1.116558,-0.409405 -2.988584,1.036854 -2.988584,1.036854 l -0.797598,7.610433 -0.614582,0.446726 -0.788812,-0.413764 z"
       id="path7"
       sodipodi:nodetypes="ccscccsccscccccc"
       inkscape:path-effect="#path-effect832"
       inkscape:original-d="m 16.933333,7.2069175 -0.296368,0.4948999 c -1.44252,0.3241618 -1.679519,2.042946 -2.11155,2.9580516 -0.152326,0.32265 -0.61202,0.355722 -1.041882,0.352531 C 12.786319,11.033495 12.81596,9.5887294 11.580592,9.7868491 8.0999924,10.442757 6.1512796,22.230108 5.7105607,26.031707 c -0.010363,0.083 -0.00521,0.144275 0.044869,0.163553 0.061466,0.02366 0.1912422,-0.09735 0.1912422,-0.09735 0,0 -0.09995,0.229146 0.011984,0.275827 0.1499193,0.06243 0.3875342,-0.413802 0.4414201,-0.544518 1.272932,-3.087868 4.2269,-6.735629 5.34368,-7.034284 1.116558,-0.409405 2.988584,1.036854 2.988584,1.036854 l 0.797598,7.610433 0.614582,0.446726 0.788812,-0.413764 z"
       transform="matrix(1.5082426,0,0,1.5082426,-8.6062404,-10.86978)" />
  </g>
</svg>
