<svg height="300px" width="300px" fill="#1A1A1A" xmlns="http://www.w3.org/2000/svg" xmlns:xlink="http://www.w3.org/1999/xlink" xml:space="preserve" version="1.1" style="shape-rendering:geometricPrecision;text-rendering:geometricPrecision;image-rendering:optimizeQuality;" viewBox="0 0 193 299" x="0px" y="0px" fill-rule="evenodd" clip-rule="evenodd"><defs><style type="text/css">
   
    .fil0 {fill:#1A1A1A}
   
  </style></defs><g><path class="fil0" d="M28 132c-27,-45 19,-63 18,-86 22,44 -21,49 -18,86z"/><path class="fil0" d="M17 148c3,20 11,38 33,49 -26,-45 -14,-91 19,-110 -3,6 -7,19 2,25 27,-29 34,-75 28,-112 34,33 53,79 31,120 -15,29 9,57 22,0 60,57 58,157 -34,179 8,-10 57,-56 8,-108 6,41 -27,41 -22,81 -26,-44 30,-46 -18,-110 12,53 -66,74 -11,136 -82,-17 -89,-93 -58,-150z"/></g></svg>