<svg height="300px" width="300px" fill="#1A1A1A" xmlns="http://www.w3.org/2000/svg" xmlns:xlink="http://www.w3.org/1999/xlink" version="1.1" x="0px" y="0px" viewBox="430 430 100 100" enable-background="new 430 430 100 100" xml:space="preserve"><path d="M517.365,474.783c-0.232-1.674-0.573-3.313-1.017-4.91c0.081-1.206,0.781-3.697,4.877-5.473l-0.832-1.918l-0.832-1.918  c-4.151,1.8-6.447,0.549-7.355-0.215c-0.654-1.07-1.36-2.104-2.114-3.1c-0.371-1.141-0.658-3.727,2.518-6.904l-1.478-1.478  l-1.478-1.478c-3.209,3.209-5.81,2.877-6.93,2.498c-1.327-1.003-2.722-1.92-4.177-2.743c-0.795-0.906-2.071-3.164-0.427-7.325  l-1.944-0.768l-1.944-0.768c-1.657,4.195-4.156,4.942-5.342,5.047c-1.213-0.293-2.449-0.527-3.705-0.7  c-1.071-0.548-3.094-2.177-3.094-6.658H480h-2.091c0,4.527-2.064,6.135-3.126,6.663c-1.678,0.232-3.321,0.575-4.921,1.02  c-1.211-0.087-3.692-0.799-5.462-4.88l-1.918,0.832l-1.918,0.832c1.786,4.117,0.571,6.415-0.193,7.341  c-1.081,0.66-2.126,1.373-3.132,2.135c-1.149,0.368-3.73,0.638-6.894-2.526l-1.478,1.478l-1.478,1.478  c3.183,3.183,2.886,5.773,2.514,6.909c-1.011,1.336-1.935,2.741-2.764,4.207c-0.914,0.795-3.173,2.055-7.319,0.417l-0.768,1.944  l-0.768,1.944c4.162,1.644,4.936,4.118,5.053,5.317c-0.297,1.225-0.534,2.473-0.707,3.741c-0.556,1.074-2.192,3.082-6.657,3.082V480  v2.091c4.491,0,6.116,2.032,6.659,3.101c0.232,1.687,0.576,3.338,1.024,4.946c-0.087,1.211-0.799,3.692-4.88,5.462l0.832,1.918  l0.832,1.918c4.117-1.785,6.415-0.571,7.341,0.193c0.66,1.081,1.373,2.126,2.135,3.132c0.368,1.149,0.638,3.73-2.526,6.894  l1.478,1.478l1.478,1.478c3.183-3.183,5.773-2.886,6.909-2.514c1.336,1.011,2.741,1.935,4.207,2.764  c0.795,0.914,2.055,3.173,0.417,7.319l1.944,0.768l1.944,0.768c1.644-4.162,4.118-4.936,5.317-5.053  c1.225,0.297,2.473,0.534,3.742,0.707c1.074,0.556,3.082,2.192,3.082,6.657H480h2.091c0-4.491,2.032-6.116,3.101-6.659  c1.683-0.232,3.33-0.574,4.935-1.021c1.206,0.081,3.697,0.781,5.473,4.877l1.918-0.832l1.918-0.832  c-1.8-4.151-0.549-6.447,0.215-7.355c1.07-0.654,2.104-1.36,3.1-2.114c1.141-0.371,3.727-0.658,6.904,2.518l1.478-1.478l1.478-1.478  c-3.209-3.209-2.877-5.81-2.498-6.93c1.003-1.327,1.92-2.722,2.743-4.177c0.906-0.795,3.164-2.071,7.325-0.427l0.768-1.944  l0.768-1.944c-4.195-1.657-4.942-4.156-5.047-5.342c0.293-1.213,0.527-2.449,0.7-3.705c0.548-1.071,2.177-3.094,6.659-3.094V480  v-2.091C519.501,477.909,517.893,475.845,517.365,474.783z M488.669,450.125c1.419-1.228,4.318-0.598,5.863,0.348  c1.545,0.946,11.685,6.567,11.685,11.769c0,5.201-5.201,5.538-5.201,5.538l-9.247,0.871c0,0-3.783,0.201-3.783-4.466l-0.473-9.615  C487.513,454.571,487.25,451.353,488.669,450.125z M483.786,457.982c0,2.764-1.695,5.005-3.786,5.005  c-2.091,0-3.786-2.241-3.786-5.005s1.695-5.005,3.786-5.005C482.091,452.977,483.786,455.218,483.786,457.982z M480,471.068  c4.933,0,8.932,3.999,8.932,8.932s-3.999,8.932-8.932,8.932c-4.933,0-8.932-3.999-8.932-8.932S475.067,471.068,480,471.068z   M466.739,450.543c5.18,0.475,5.04,5.685,5.04,5.685l0.024,9.288c0,0-0.145,3.785-4.792,3.359l-9.618-0.407  c0,0-3.229-0.032-4.322-1.557c-1.093-1.525-0.201-4.354,0.882-5.807C455.036,459.652,461.56,450.068,466.739,450.543z   M458.298,499.821c-1.836,0.388-4.067-1.567-4.962-3.143c-0.894-1.575-7.046-11.403-4.528-15.954  c2.518-4.551,7.232-2.328,7.232-2.328l8.513,3.714c0,0,3.408,1.655,1.148,5.739l-4.241,8.642  C461.462,496.49,460.134,499.433,458.298,499.821z M471.101,510.295c-3.421-3.918,0.276-7.593,0.276-7.593l6.392-6.738  c0,0,2.717-2.64,5.787,0.876l6.68,6.932c0,0,2.314,2.251,2.054,4.11c-0.261,1.858-2.859,3.29-4.645,3.594  C485.858,511.779,474.522,514.213,471.101,510.295z M499.553,495.25l-4.497-8.127c0,0-1.698-3.387,2.58-5.253l8.623-4.279  c0,0,2.844-1.528,4.537-0.719c1.693,0.809,2.275,3.718,2.026,5.513c-0.249,1.794-1.346,13.337-6.113,15.417  C501.942,499.882,499.553,495.25,499.553,495.25z"/></svg>