<?xml version="1.0" encoding="UTF-8" standalone="no"?>
<svg
   xmlns:dc="http://purl.org/dc/elements/1.1/"
   xmlns:cc="http://creativecommons.org/ns#"
   xmlns:rdf="http://www.w3.org/1999/02/22-rdf-syntax-ns#"
   xmlns:svg="http://www.w3.org/2000/svg"
   xmlns="http://www.w3.org/2000/svg"
   xmlns:sodipodi="http://sodipodi.sourceforge.net/DTD/sodipodi-0.dtd"
   xmlns:inkscape="http://www.inkscape.org/namespaces/inkscape"
   width="512"
   height="512"
   viewBox="0 0 135.46667 135.46667"
   version="1.1"
   id="svg4258"
   inkscape:version="1.0.1 (c497b03c, 2020-09-10)"
   inkscape:export-filename="/Users/alsrfo/bitmap.png"
   inkscape:export-xdpi="96"
   inkscape:export-ydpi="96"
   sodipodi:docname="swallow.svg">
  <defs
     id="defs4252">
    <inkscape:path-effect
       effect="mirror_symmetry"
       start_point="74.071019,30.888621"
       end_point="74.071019,121.77154"
       center_point="74.071019,76.33008"
       id="path-effect868"
       is_visible="true"
       lpeversion="1"
       mode="free"
       discard_orig_path="false"
       fuse_paths="false"
       oposite_fuse="false"
       split_items="false" />
  </defs>
  <sodipodi:namedview
     id="base"
     pagecolor="#ffffff"
     bordercolor="#666666"
     borderopacity="1.0"
     inkscape:pageopacity="0.0"
     inkscape:pageshadow="2"
     inkscape:zoom="1.0090674"
     inkscape:cx="-8.9095853"
     inkscape:cy="250.78496"
     inkscape:document-units="mm"
     inkscape:current-layer="layer1"
     inkscape:document-rotation="0"
     showgrid="false"
     units="px"
     inkscape:window-width="1252"
     inkscape:window-height="755"
     inkscape:window-x="0"
     inkscape:window-y="23"
     inkscape:window-maximized="0" />
  <metadata
     id="metadata4255">
    <rdf:RDF>
      <cc:Work
         rdf:about="">
        <dc:format>image/svg+xml</dc:format>
        <dc:type
           rdf:resource="http://purl.org/dc/dcmitype/StillImage" />
        <dc:title />
      </cc:Work>
    </rdf:RDF>
  </metadata>
  <g
     inkscape:label="Layer 1"
     inkscape:groupmode="layer"
     id="layer1">
    <path
       style="fill:#000000;fill-opacity:1;stroke:none;stroke-width:0.26458300000000001px;stroke-linecap:butt;stroke-linejoin:miter;stroke-opacity:1"
       d="M 67.163156,48.083493 C 63.904703,44.50991 63.653614,44.529087 55.065064,43.620552 38.531107,48.807836 29.137746,69.745845 21.934836,84.415374 35.364801,68.730936 42.243897,65.536838 47.547929,64.169147 c 6.317199,1.347786 14.314765,3.935266 18.225213,6.596746 0,0 1.64224,3.421425 2.191203,13.58438 -2.819544,6.199949 -7.113451,27.380517 -8.687333,35.872807 -0.246766,1.33149 0.506658,0.74599 0.506658,0.74599 3.273815,-13.95729 6.561087,-23.499354 8.187705,-25.715473 1.043842,-1.762164 2.040246,-3.57955 6.099625,-4.810034 l 1.9e-5,-56.700081 -1.838666,3.183975 c -2.021309,1.337393 -3.58651,3.005869 -4.020755,5.134346 z m 13.815726,0 c 3.258453,-3.573583 3.509542,-3.554406 12.098092,-4.462941 16.533956,5.187284 25.927316,26.125293 33.130226,40.794822 -13.42996,-15.684438 -20.30906,-18.878536 -25.61309,-20.246227 -6.3172,1.347786 -14.314766,3.935266 -18.225214,6.596746 0,0 -1.64224,3.421425 -2.191203,13.58438 2.819544,6.199949 7.113451,27.380517 8.687333,35.872807 0.246766,1.33149 -0.506658,0.74599 -0.506658,0.74599 -3.273815,-13.95729 -6.561087,-23.499354 -8.187705,-25.715473 -1.043842,-1.762164 -2.040246,-3.57955 -6.099625,-4.810034 l -1.9e-5,-56.700081 1.838666,3.183975 c 2.021309,1.337393 3.58651,3.005869 4.020755,5.134346 z"
       id="path11"
       sodipodi:nodetypes="ccccccsccccccc"
       inkscape:path-effect="#path-effect868"
       inkscape:original-d="M 67.163156,48.083493 C 63.904703,44.50991 63.653614,44.529087 55.065064,43.620552 38.531107,48.807836 29.137746,69.745845 21.934836,84.415374 35.364801,68.730936 42.243897,65.536838 47.547929,64.169147 c 6.317199,1.347786 14.314765,3.935266 18.225213,6.596746 0,0 1.64224,3.421425 2.191203,13.58438 -2.819544,6.199949 -7.113451,27.380517 -8.687333,35.872807 -0.246766,1.33149 0.506658,0.74599 0.506658,0.74599 3.273815,-13.95729 6.561087,-23.499354 8.187705,-25.715473 1.043842,-1.762164 2.040246,-3.57955 6.099625,-4.810034 l 1.9e-5,-56.700081 -1.838666,3.183975 c -2.021309,1.337393 -3.58651,3.005869 -4.020755,5.134346 z"
       transform="matrix(1.2991617,0,0,1.2991617,-28.496901,-22.301699)" />
  </g>
</svg>
