<svg height="300px" width="300px" fill="#1A1A1A" xmlns="http://www.w3.org/2000/svg" xmlns:xlink="http://www.w3.org/1999/xlink" version="1.1" x="0px" y="0px" viewBox="0 0 64 64" enable-background="new 0 0 64 64" xml:space="preserve"><g><path d="M48.87,25.507C48.692,25.194,48.36,25,48,25H35V8.773C35,7.861,35,7,34,7c-0.352,0-0.677,0.184-0.857,0.485l-18,30   c-0.186,0.309-0.19,0.693-0.013,1.008C15.307,38.807,15.64,39,16,39h13v17c0,0.449,0.3,0.844,0.733,0.964   C29.822,56.988,29.911,57,30,57c0.345,0,0.673-0.179,0.857-0.485l18-30C49.043,26.206,49.048,25.821,48.87,25.507z"/></g></svg>