<?xml version="1.0" encoding="UTF-8" standalone="no"?>
<svg
   xmlns:dc="http://purl.org/dc/elements/1.1/"
   xmlns:cc="http://creativecommons.org/ns#"
   xmlns:rdf="http://www.w3.org/1999/02/22-rdf-syntax-ns#"
   xmlns:svg="http://www.w3.org/2000/svg"
   xmlns="http://www.w3.org/2000/svg"
   xmlns:sodipodi="http://sodipodi.sourceforge.net/DTD/sodipodi-0.dtd"
   xmlns:inkscape="http://www.inkscape.org/namespaces/inkscape"
   height="300px"
   width="300px"
   fill="#1A1A1A"
   viewBox="0 0 100 100"
   x="0px"
   y="0px"
   version="1.1"
   id="svg834"
   sodipodi:docname="tree.svg"
   inkscape:version="1.0.1 (c497b03c, 2020-09-10)">
  <metadata
     id="metadata840">
    <rdf:RDF>
      <cc:Work
         rdf:about="">
        <dc:format>image/svg+xml</dc:format>
        <dc:type
           rdf:resource="http://purl.org/dc/dcmitype/StillImage" />
      </cc:Work>
    </rdf:RDF>
  </metadata>
  <defs
     id="defs838" />
  <sodipodi:namedview
     pagecolor="#ffffff"
     bordercolor="#666666"
     borderopacity="1"
     objecttolerance="10"
     gridtolerance="10"
     guidetolerance="10"
     inkscape:pageopacity="0"
     inkscape:pageshadow="2"
     inkscape:window-width="1111"
     inkscape:window-height="702"
     id="namedview836"
     showgrid="false"
     inkscape:zoom="1.6466667"
     inkscape:cx="150"
     inkscape:cy="150"
     inkscape:window-x="0"
     inkscape:window-y="23"
     inkscape:window-maximized="0"
     inkscape:current-layer="svg834" />
  <title
     id="title830">icn_halloween_dead tree</title>
  <path
     d="M54.28,15.49a5,5,0,0,1-.41,1.34c-4.3,5.84-4.33,13-5.85,19.62a7.7,7.7,0,0,0,.68,4c1,2.87,2.26,5.68,3.73,9.31,1.24-2.88,2.22-5.12,3.17-7.38.33-.78.51-1.63.87-2.4a17.51,17.51,0,0,0,1.2-11.13c-.65-3.55,0-7.34.1-11l.76,0c.84,3.62,1.67,7.23,2.59,11.2L76.67,15.59l.63.65Q71.62,23,65.92,29.79C62,34.41,60.82,40,60,45.71l.64.54c3.7-3.28,8-6.11,10.93-10S76,27.42,78.14,22.93l.85.26c-.63,3.58-1.26,7.15-1.82,10.3H87.51l-.09.33a75.89,75.89,0,0,0-8.29,2.89,15.81,15.81,0,0,0-4.38,3.57,28.22,28.22,0,0,0-2.41,3.6c-2.16,3.13-2.12,3,1.31,4.85,4.41,2.36,8.89,3.8,13.95,2-3.6,2.79-7.27,4.68-11.88,2.83-2.36-1-4.89-1.52-7.27-2.45-1.57-.62-2.79-.57-3.84.84-.14.19-.44.25-.64.4-4.3,3.4-6.33,7.11-4.69,13.14,1.73,6.35,2,13.14,2.45,19.77.22,3.4.91,6,4.3,7.28.46.18.89.45,1.34.68l-.51.8-9.57-1.77v3.25a15.43,15.43,0,0,1-3.11-1.94c-1.55-1.61-2.76-1.79-4,.29-.18.33-.62.5-1.2.94,0-2.86-1.74-2.88-3.7-2.6a44.18,44.18,0,0,1-7.4.48,11.21,11.21,0,0,1,2.55-1.45c5.06-1.41,6.46-5.55,7.56-9.94.55-2.23,1.12-4.46,1.65-6.69,1-4.17-.75-7.9-2-11.64-.6-1.75-2.21-2-3.74-.63-4.91,4.28-11.21,3.86-17,5.12,4-3.38,10.09-3.14,13.5-8.49-4.88-1.82-7.91-7.68-14.34-5.77-3.18.95-6.29,2.15-9.43,3.22a2.77,2.77,0,0,1-1.9,0l6.68-4-9-5.64.29-.7c3.09.64,6.19,1.29,9.29,1.91a6,6,0,0,0,2.51.3c5.09-1.41,9.24,1.08,13.54,3,2.38,1.09,4.83,2,8,3.35-.51-2.28-.75-4-1.27-5.58-.87-2.68-1.85-5.33-2.94-7.92A3,3,0,0,0,40,39.72c-4.4-1-8.83-1.94-13.25-2.89l-.92-.2,0-.7H40.55c-3.19-5.15-5.66-9.81-8.86-13.91-1.12-1.44-4-1.53-6.1-2.17a16.34,16.34,0,0,1-3.81-1.34c3.43,0,6.86-.1,10.28.08.73,0,1.58.92,2.09,1.61,2.63,3.56,5.15,7.18,7.73,10.76.37.52.84,1,1.45,1.66C47.15,26.87,47.42,19.18,54.28,15.49Z"
     id="path832" />
</svg>
